<svg data-v-423bf9ae="" xmlns="http://www.w3.org/2000/svg" viewBox="0 0 645 112" class="iconLeft"><!----><!----><!----><g data-v-423bf9ae="" id="7c59a53a-58dc-474e-b9ff-a83896db41bd" fill="black" transform="matrix(4.414852674532455,0,0,4.414852674532455,128.9306942319862,25.511408016095196)"><path d="M6.43 9.27C7 8.30 6.92 6.73 5.03 5.49L2.63 3.92C0.38 2.46 1.83 0.46 3.35 0.46C5.73 0.46 6.12 1.61 6.17 3.32L6.34 3.32L6.34 0.97C6.34 0.97 5.19 0.31 3.35 0.31C1.53 0.31 0.84 1.40 0.84 1.40C-0.20 3.14 1.34 4.33 2.35 5.03L4.75 6.61C6.36 7.73 6.16 10.26 3.72 10.26C1.40 10.26 0.85 9.11 0.78 6.97L0.64 6.97L0.64 9.66C0.64 9.66 1.67 10.42 3.72 10.42C5.85 10.42 6.43 9.27 6.43 9.27ZM11.48 9.24C11.37 9.58 11.03 9.88 10.63 9.88C9.98 9.88 9.55 9.51 9.55 8.23L9.55 3.98L11.17 3.98L11.20 3.82L9.55 3.82L9.55 1.64L8.58 1.76L8.58 3.82L7.85 3.82L7.88 3.98L8.58 3.98L8.58 8.27C8.58 9.97 9.20 10.42 10.16 10.42C10.91 10.42 11.44 9.88 11.59 9.30L11.48 9.24ZM18.56 10.04C17.98 9.97 17.85 9.86 17.85 9.18L17.85 3.70L16.23 3.95L16.23 4.10C16.90 4.12 16.88 4.17 16.88 5.03L16.88 8.72C16.67 9.32 16.17 9.88 15.33 9.88C14.52 9.88 13.75 9.46 13.75 8.27L13.75 3.70L12.03 3.95L12.03 4.10C12.81 4.10 12.81 4.16 12.81 5.10L12.81 8.32C12.81 10.09 13.96 10.42 14.92 10.42C15.89 10.42 16.69 9.77 16.88 9.06L16.88 10.22C16.88 10.22 16.88 10.47 17.21 10.40L18.56 10.18L18.56 10.04ZM24.28 8.41C24.28 9.39 23.52 10.05 22.61 10.05C21.35 10.05 20.52 8.95 20.52 6.75C20.52 4.44 21.70 3.85 22.58 3.85C23.45 3.85 24.28 4.58 24.28 5.73ZM25.94 10.02C25.38 10.05 25.23 10.01 25.23 9.32L25.23 0.01L23.56 0.32L23.56 0.48C24.14 0.53 24.28 0.74 24.28 1.23L24.28 4.26C23.83 3.92 23.24 3.70 22.54 3.70C20.72 3.70 19.33 4.84 19.33 6.99C19.33 8.81 20.24 10.42 22.26 10.42C22.97 10.42 23.86 10.09 24.28 9.44L24.28 10.15C24.28 10.15 24.28 10.47 24.67 10.40L25.94 10.16ZM30.21 3.82L30.21 3.96C31.84 3.95 30.98 6.20 30.98 6.20L29.96 9.07L28.10 5.07C28.10 5.07 27.55 3.96 28.55 3.96L28.55 3.82L25.84 3.82L25.84 3.96C26.07 3.99 26.59 4.07 26.89 4.76C26.89 4.76 27.41 5.80 29.50 10.32L28.81 12.26C28.63 12.75 28.35 12.99 28.29 12.78C28.25 12.63 28.14 12.47 27.97 12.40C27.66 12.26 27.30 12.40 27.15 12.73C27.02 13.03 27.15 13.40 27.47 13.55C27.69 13.65 28.01 13.59 28.18 13.47C28.35 13.33 28.70 13.03 28.95 12.29L31.14 6.23C31.91 4.13 32.31 3.96 32.90 3.96L32.90 3.82ZM38.19 7.03L39.97 2.11L41.87 7.03ZM44.98 10.14C44.58 10.11 44.30 10.05 43.85 8.93C43.85 8.93 41.30 2.49 40.45 0.43L40.35 0.43L38.04 6.80C36.90 9.98 36.55 10.14 35.94 10.14L35.94 10.29L38.91 10.29L38.91 10.14C37.09 10.16 37.56 8.86 38.15 7.18L41.93 7.18L42.43 8.51C42.94 9.69 42.78 10.14 42.20 10.14L42.20 10.29L44.98 10.29ZM50.22 5.85C50.22 7.42 49.27 7.88 48.62 7.88C48.01 7.88 47.05 7.42 47.05 5.85C47.05 4.28 47.92 3.85 48.62 3.85C49.22 3.85 50.22 4.28 50.22 5.85ZM52.28 4.62C52.53 4.44 52.58 4.09 52.39 3.84C52.26 3.67 52.04 3.60 51.81 3.61C51.49 3.63 50.93 3.85 50.58 4.37C50.13 3.95 49.41 3.70 48.62 3.70C47.07 3.70 46.05 4.72 46.05 5.85C46.05 6.59 46.37 7.38 47.12 7.71C45.85 8.02 45.93 9.16 45.93 9.16C45.93 9.59 46.09 9.97 46.51 10.18C45.54 10.78 45.02 11.77 45.56 12.68C46.14 13.71 48.19 13.96 50.06 12.89C51.53 12.07 51.58 11.02 51.58 11.02C51.81 9.32 50.09 9.45 49.13 9.45L47.59 9.45C45.84 9.45 46.48 7.87 47.26 7.78C47.64 7.95 48.08 8.04 48.62 8.04C50.20 8.04 51.23 6.99 51.23 5.85C51.23 5.35 51.04 4.80 50.68 4.45C50.95 4.05 51.44 4.00 51.41 4.12C51.37 4.26 51.41 4.41 51.49 4.54C51.69 4.77 52.04 4.82 52.28 4.62ZM46.40 12.43C46.44 12.47 45.30 11.21 46.66 10.26C47.12 10.43 47.66 10.42 47.81 10.42L49.77 10.42C51.06 10.42 51.07 11.13 51.07 11.13C51.07 11.13 51.16 12.01 49.98 12.75C48.78 13.51 47.00 13.15 46.40 12.43ZM56.70 6.78C56.70 6.78 56.70 8.95 56.70 8.95C56.55 9.28 56.18 9.90 55.31 9.90C54.49 9.90 54.11 9.31 54.11 8.71C54.11 7.80 54.95 7.20 56.70 6.78ZM58.31 9.86C57.69 9.86 57.71 9.02 57.71 9.02L57.71 6.50C57.71 4.83 57.33 3.70 55.96 3.70C55.96 3.70 55.29 3.67 54.70 3.96C53.96 4.37 53.69 4.80 53.61 5.00C53.52 5.18 53.55 5.42 53.69 5.60C53.89 5.87 54.25 5.89 54.49 5.70C54.74 5.49 54.80 5.12 54.59 4.87C54.49 4.75 54.35 4.69 54.21 4.66C54.12 4.65 54.22 4.35 54.82 4.07C56.01 3.54 56.70 4.40 56.70 5.84L56.70 6.62C54.33 7.24 53.14 7.63 53.14 8.96C53.14 10.42 54.73 10.42 54.73 10.42C55.71 10.42 56.50 9.91 56.70 9.21C56.74 10.46 57.78 10.42 57.78 10.42C58.44 10.42 58.81 9.90 58.90 9.48L58.76 9.42C58.66 9.86 58.31 9.86 58.31 9.86ZM60.54 2.51C60.86 2.51 61.14 2.24 61.14 1.92C61.14 1.58 60.86 1.32 60.54 1.32C60.20 1.32 59.95 1.58 59.95 1.92C59.95 2.24 60.20 2.51 60.54 2.51ZM61.73 10.14C61.22 10.01 61.15 9.97 61.15 9.20L61.15 3.70L59.50 4.02L59.50 4.16C60.09 4.24 60.20 4.44 60.20 4.91L60.20 9.20C60.20 9.91 60.17 9.98 59.64 10.14L59.64 10.29L61.73 10.29ZM68.73 10.15C68.22 10.02 68.15 9.97 68.15 9.20L68.15 5.98C68.15 4.30 67.28 3.70 66.14 3.70C65.25 3.70 64.34 4.35 64.06 5.14L64.06 3.70L62.40 4.02L62.40 4.16C62.99 4.24 63.10 4.44 63.10 4.93L63.10 9.20C63.10 9.91 63.07 9.98 62.54 10.14L62.54 10.29L64.64 10.29L64.64 10.14C64.13 10.01 64.06 9.97 64.06 9.20L64.06 5.46C64.23 4.98 64.81 4.23 65.60 4.23C66.64 4.23 67.20 4.94 67.20 6.03L67.20 9.20C67.20 9.91 67.17 10.00 66.64 10.15L66.64 10.29L68.73 10.29L68.73 10.15ZM71.68 0.43L71.68 2.73L71.82 2.73C71.85 0.59 73.51 0.57 74.16 0.57L75.26 0.57L75.26 9.10C75.26 10.01 74.93 10.14 74.34 10.14L74.34 10.29L77.25 10.29L77.25 10.14C76.66 10.14 76.33 10.01 76.33 9.10L76.33 0.57L77.43 0.57C77.73 0.57 79.74 0.59 79.77 2.73L79.93 2.73L79.93 0.43ZM80.74 6.76C80.74 4.80 81.77 3.85 82.57 3.85C83.19 3.85 84.27 4.59 84.27 6.76ZM84.88 8.61C84.66 9.32 83.75 9.95 82.85 9.91C81.68 9.86 80.77 9.07 80.74 6.93L85.22 6.93C85.22 4.72 84.03 3.70 82.59 3.70C80.96 3.70 79.66 5.01 79.66 7.13C79.66 9.09 80.91 10.42 82.60 10.42C84.14 10.42 84.90 9.28 84.99 8.65ZM89.91 6.78C89.91 6.78 89.91 8.95 89.91 8.95C89.75 9.28 89.39 9.90 88.52 9.90C87.70 9.90 87.32 9.31 87.32 8.71C87.32 7.80 88.16 7.20 89.91 6.78ZM91.52 9.86C90.90 9.86 90.92 9.02 90.92 9.02L90.92 6.50C90.92 4.83 90.54 3.70 89.17 3.70C89.17 3.70 88.49 3.67 87.91 3.96C87.16 4.37 86.90 4.80 86.81 5.00C86.73 5.18 86.76 5.42 86.90 5.60C87.09 5.87 87.46 5.89 87.70 5.70C87.95 5.49 88.00 5.12 87.79 4.87C87.70 4.75 87.56 4.69 87.42 4.66C87.33 4.65 87.43 4.35 88.03 4.07C89.22 3.54 89.91 4.40 89.91 5.84L89.91 6.62C87.54 7.24 86.35 7.63 86.35 8.96C86.35 10.42 87.93 10.42 87.93 10.42C88.91 10.42 89.71 9.91 89.91 9.21C89.95 10.46 90.99 10.42 90.99 10.42C91.64 10.42 92.02 9.90 92.11 9.48L91.97 9.42C91.87 9.86 91.52 9.86 91.52 9.86ZM98.34 8.51C98.11 9.13 97.37 9.93 96.18 9.87C95.17 9.83 94.01 9.03 94.01 6.97C94.01 4.27 95.63 3.85 96.22 3.85C97.34 3.85 97.78 4.35 97.64 4.33C97.54 4.30 97.38 4.37 97.27 4.48C97.05 4.69 97.06 5.03 97.29 5.25C97.48 5.45 97.86 5.42 98.06 5.22C98.21 5.07 98.22 4.84 98.17 4.66C98.11 4.42 97.79 3.70 96.22 3.70C94.21 3.70 92.93 5.32 92.93 7.08C92.93 9.35 94.54 10.42 95.96 10.42C97.66 10.42 98.32 9.24 98.45 8.55ZM105.27 10.15C104.78 10.02 104.69 9.95 104.69 9.18L104.69 5.99C104.69 4.31 103.84 3.70 102.68 3.70C101.72 3.70 100.76 4.49 100.56 5.32L100.56 0.01L98.90 0.34L98.90 0.49C99.48 0.55 99.60 0.73 99.60 1.22L99.60 9.18C99.60 9.90 99.57 9.98 99.04 10.14L99.04 10.29L101.14 10.29L101.14 10.14C100.63 10.01 100.56 9.95 100.56 9.18L100.56 5.50C100.74 5.07 101.30 4.24 102.14 4.24C103.21 4.24 103.74 4.93 103.74 6.05L103.74 9.18C103.74 9.90 103.71 10.00 103.18 10.15L103.18 10.29L105.27 10.29L105.27 10.15ZM107.04 6.76C107.04 4.80 108.08 3.85 108.88 3.85C109.49 3.85 110.57 4.59 110.57 6.76ZM111.19 8.61C110.96 9.32 110.05 9.95 109.16 9.91C107.98 9.86 107.07 9.07 107.04 6.93L111.52 6.93C111.52 4.72 110.33 3.70 108.89 3.70C107.27 3.70 105.97 5.01 105.97 7.13C105.97 9.09 107.21 10.42 108.91 10.42C110.45 10.42 111.20 9.28 111.30 8.65ZM115.95 3.72C115.26 3.72 114.35 4.27 113.95 5.10L113.95 3.70L112.28 4.02L112.28 4.16C112.87 4.23 112.98 4.44 112.98 4.91L112.98 9.20C112.98 9.91 112.95 9.98 112.42 10.14L112.42 10.29L114.52 10.29L114.52 10.14C114.02 10.01 113.95 9.97 113.95 9.20L113.95 5.40C114.35 4.42 115.47 3.99 115.40 4.27C115.36 4.42 115.39 4.59 115.47 4.73C115.68 5.04 116.09 5.12 116.38 4.93C116.69 4.73 116.77 4.34 116.58 4.03C116.42 3.82 116.17 3.72 115.95 3.72Z"></path></g><!----><g data-v-423bf9ae="" id="6bfd3e0e-d845-4be2-9303-ced8fbcbd594" transform="matrix(1.1111111111111112,0,0,1.1111111111111112,0.44444444444444287,0.44444444444444287)" stroke="none" fill="black"><path d="M95.84 33.255L50 10.469 4.16 33.255 0 24.883 49.935.059l.02-.059.045.026.045-.026.02.059L100 24.883zM50.43 45.228c-3.001-2.865-20.215-12.826-43.763-2.683V98.21H42.35c1.218 1.041 4.128 1.79 7.533 1.79 3.418 0 6.321-.749 7.552-1.79h35.898V49.811v-7.266c-22.584-9.947-40.625.58-42.903 2.683zm-3.203 49.511c0-1.907-16.745-13.06-36.094-.892V46.66c3.828-2.207 8.984-3.548 14.674-3.548 11.836 0 21.419 3.88 21.419 11.094v40.533zm41.907-.891c-19.336-12.168-36.08-1.016-36.08.892V54.206c0-7.214 9.59-11.094 21.412-11.094 5.69 0 10.847 1.341 14.668 3.548v47.188z"></path></g><!----></svg>